<?xml version="1.0" encoding="UTF-8" standalone="no"?>
<svg
   width="1199"
   height="1381"
   xml:space="preserve"
   overflow="hidden"
   version="1.1"
   id="svg35"
   sodipodi:docname="tripper_circle_w_name.svg"
   inkscape:version="1.3 (0e150ed6c4, 2023-07-21)"
   xmlns:inkscape="http://www.inkscape.org/namespaces/inkscape"
   xmlns:sodipodi="http://sodipodi.sourceforge.net/DTD/sodipodi-0.dtd"
   xmlns="http://www.w3.org/2000/svg"
   xmlns:svg="http://www.w3.org/2000/svg"><defs
     id="defs35" /><sodipodi:namedview
     id="namedview35"
     pagecolor="#ffffff"
     bordercolor="#666666"
     borderopacity="1.0"
     inkscape:showpageshadow="2"
     inkscape:pageopacity="0.0"
     inkscape:pagecheckerboard="0"
     inkscape:deskcolor="#d1d1d1"
     inkscape:zoom="0.75430759"
     inkscape:cx="671.47673"
     inkscape:cy="783.5"
     inkscape:window-width="3440"
     inkscape:window-height="1386"
     inkscape:window-x="0"
     inkscape:window-y="0"
     inkscape:window-maximized="1"
     inkscape:current-layer="svg35" /><g
     transform="translate(-1621,-217)"
     id="g35"><path
       d="m 2222.5,219.5 c 212.22,0 408.31,113.311 514.42,297.25 106.11,183.939 106.11,410.561 0,594.5 L 2222.5,814 Z"
       stroke="#0a8599"
       stroke-width="4.58333"
       stroke-miterlimit="8"
       fill="none"
       fill-rule="evenodd"
       id="path1" /><path
       d="m 2734.85,1111.5 c -106.2,183.78 -302.46,297 -514.85,297 -212.39,0 -408.65,-113.22 -514.85,-297 L 2220,814.5 Z"
       stroke="#0a8599"
       stroke-width="4.58333"
       stroke-miterlimit="8"
       fill="none"
       fill-rule="evenodd"
       id="path2" /><path
       d="m 1705.15,1111.5 c -106.2,-183.784 -106.2,-410.216 0,-594 106.2,-183.784 302.46,-297 514.85,-297 v 594 z"
       stroke="#0a8599"
       stroke-width="4.58333"
       stroke-miterlimit="8"
       fill="none"
       fill-rule="evenodd"
       id="path3" /><path
       d="m 2407.5,438.5 192.89,118.294"
       stroke="#01203d"
       stroke-width="20.625"
       stroke-linejoin="round"
       stroke-miterlimit="10"
       fill="none"
       fill-rule="evenodd"
       id="path4" /><path
       d="M 2670.99,796.166 2610.5,564.5"
       stroke="#01203d"
       stroke-width="20.625"
       stroke-linejoin="round"
       stroke-miterlimit="10"
       fill="none"
       fill-rule="evenodd"
       id="path5" /><path
       d="M 0,0 130.984,168.839"
       stroke="#01203d"
       stroke-width="20.625"
       stroke-linejoin="round"
       stroke-miterlimit="10"
       fill="none"
       fill-rule="evenodd"
       transform="matrix(-1,0,0,1,2605.48,566.5)"
       id="path6" /><path
       d="M 0,0 110.909,115.875"
       stroke="#01203d"
       stroke-width="20.625"
       stroke-linejoin="round"
       stroke-miterlimit="10"
       fill="none"
       fill-rule="evenodd"
       transform="matrix(-1,0,0,1,2677.41,796.5)"
       id="path7" /><path
       d="M 0,0 278.553,29.9274"
       stroke="#01203d"
       stroke-width="20.625"
       stroke-linejoin="round"
       stroke-miterlimit="10"
       fill="none"
       fill-rule="evenodd"
       transform="matrix(1,0,0,-1,2208.5,1182.43)"
       id="path8" /><path
       d="m 2222.5,1180.5 19.1,143.58"
       stroke="#01203d"
       stroke-width="20.625"
       stroke-linejoin="round"
       stroke-miterlimit="10"
       fill="none"
       fill-rule="evenodd"
       id="path9" /><path
       d="M 0,0 326.941,24.1083"
       stroke="#01203d"
       stroke-width="20.625"
       stroke-linejoin="round"
       stroke-miterlimit="10"
       fill="none"
       fill-rule="evenodd"
       transform="matrix(-1,0,0,1,2208.44,1180.5)"
       id="path10" /><path
       d="M 2219.74,1180.85 2105.5,1019.5"
       stroke="#01203d"
       stroke-width="20.625"
       stroke-linejoin="round"
       stroke-miterlimit="10"
       fill="none"
       fill-rule="evenodd"
       id="path11" /><path
       d="M 0,0 179.153,67.0332"
       stroke="#01203d"
       stroke-width="20.625"
       stroke-linejoin="round"
       stroke-miterlimit="10"
       fill="none"
       fill-rule="evenodd"
       transform="matrix(-1,0,0,1,1966.65,773.5)"
       id="path12" /><path
       d="M 0,0 86.7564,275.94"
       stroke="#01203d"
       stroke-width="20.625"
       stroke-linejoin="round"
       stroke-miterlimit="10"
       fill="none"
       fill-rule="evenodd"
       transform="matrix(-1,0,0,1,1874.26,564.5)"
       id="path13" /><path
       d="M 0,0 168.864,144.676"
       stroke="#01203d"
       stroke-width="20.625"
       stroke-linejoin="round"
       stroke-miterlimit="10"
       fill="none"
       fill-rule="evenodd"
       transform="matrix(-1,0,0,1,2047.36,421.5)"
       id="path14" /><path
       d="m 2419,739 c 0,-33.69 27.09,-61 60.5,-61 33.41,0 60.5,27.31 60.5,61 0,33.689 -27.09,61 -60.5,61 -33.41,0 -60.5,-27.311 -60.5,-61 z"
       fill="#0c8498"
       fill-rule="evenodd"
       id="path15" /><path
       d="m 2359,443 c 0,-33.689 27.31,-61 61,-61 33.69,0 61,27.311 61,61 0,33.689 -27.31,61 -61,61 -33.69,0 -61,-27.311 -61,-61 z"
       fill="#022c4c"
       fill-rule="evenodd"
       id="path16" /><path
       d="m 2540,564 c 0,-33.689 27.31,-61 61,-61 33.69,0 61,27.311 61,61 0,33.689 -27.31,61 -61,61 -33.69,0 -61,-27.311 -61,-61 z"
       fill="#0c8498"
       fill-rule="evenodd"
       id="path17" /><path
       d="m 2157.11,1215.28 c -18.67,-27.95 -11.15,-65.75 16.81,-84.43 27.96,-18.67 65.76,-11.15 84.43,16.81 18.68,27.95 11.15,65.76 -16.81,84.43 -27.95,18.67 -65.75,11.15 -84.43,-16.81 z"
       fill="#0c8498"
       fill-rule="evenodd"
       id="path18" /><path
       d="m 2616,796 c 0,-33.689 27.31,-61 61,-61 33.69,0 61,27.311 61,61 0,33.689 -27.31,61 -61,61 -33.69,0 -61,-27.311 -61,-61 z"
       fill="#0c8498"
       fill-rule="evenodd"
       id="path19" /><path
       d="m 2425,1140 c 0,-33.69 27.31,-61 61,-61 33.69,0 61,27.31 61,61 0,33.69 -27.31,61 -61,61 -33.69,0 -61,-27.31 -61,-61 z"
       fill="#022c4c"
       fill-rule="evenodd"
       id="path20" /><path
       d="m 2505,901 c 0,-33.689 27.31,-61 61,-61 33.69,0 61,27.311 61,61 0,33.69 -27.31,61 -61,61 -33.69,0 -61,-27.31 -61,-61 z"
       fill="#022c4c"
       fill-rule="evenodd"
       id="path21" /><path
       d="m 2189.92,1350.04 c -17.26,-28.85 -7.87,-66.23 20.98,-83.49 28.85,-17.26 66.23,-7.87 83.49,20.98 17.27,28.85 7.87,66.23 -20.98,83.49 -28.85,17.26 -66.23,7.87 -83.49,-20.98 z"
       fill="#022c4c"
       fill-rule="evenodd"
       id="path22" /><path
       d="m 1849,1196 c 0,-33.69 27.31,-61 61,-61 33.69,0 61,27.31 61,61 0,33.69 -27.31,61 -61,61 -33.69,0 -61,-27.31 -61,-61 z"
       fill="#022c4c"
       fill-rule="evenodd"
       id="path23" /><path
       d="m 2047,1018.5 c 0,-33.413 27.31,-60.5 61,-60.5 33.69,0 61,27.087 61,60.5 0,33.41 -27.31,60.5 -61,60.5 -33.69,0 -61,-27.09 -61,-60.5 z"
       fill="#022c4c"
       fill-rule="evenodd"
       id="path24" /><path
       d="m 1727,840 c 0,-33.689 27.31,-61 61,-61 33.69,0 61,27.311 61,61 0,33.689 -27.31,61 -61,61 -33.69,0 -61,-27.311 -61,-61 z"
       fill="#0c8498"
       fill-rule="evenodd"
       id="path25" /><path
       d="m 1984,417.5 c 0,-33.413 27.09,-60.5 60.5,-60.5 33.41,0 60.5,27.087 60.5,60.5 0,33.413 -27.09,60.5 -60.5,60.5 -33.41,0 -60.5,-27.087 -60.5,-60.5 z"
       fill="#0a8599"
       fill-rule="evenodd"
       id="path26" /><path
       d="m 1812.7,576.828 c 2.04,-33.558 30.9,-59.107 64.46,-57.066 33.56,2.041 59.11,30.9 57.07,64.457 -2.04,33.558 -30.9,59.107 -64.46,57.066 -33.56,-2.041 -59.11,-30.899 -57.07,-64.457 z"
       fill="#0c8498"
       fill-rule="evenodd"
       id="path27" /><path
       d="m 1881,779 c 0,-33.689 27.31,-61 61,-61 33.69,0 61,27.311 61,61 0,33.69 -27.31,61 -61,61 -33.69,0 -61,-27.31 -61,-61 z"
       fill="#022c4c"
       fill-rule="evenodd"
       id="path28" /><path
       d="m 2045,625 h 354 v 63.44 H 2253.66 V 1019 h -63.32 V 688.44 H 2045 Z"
       fill="#032c4b"
       fill-rule="evenodd"
       id="path29" /><text
       fill="#032c4b"
       font-family="'Avenir Next LT Pro Demi', 'Avenir Next LT Pro Demi_MSFontService', sans-serif"
       font-weight="600"
       font-size="220px"
       transform="translate(1673.46,1597)"
       id="text29">T</text><text
       fill="#032c4b"
       font-family="'Avenir Next LT Pro Demi', 'Avenir Next LT Pro Demi_MSFontService', sans-serif"
       font-weight="600"
       font-size="220px"
       transform="translate(1843.46,1597)"
       id="text30">R</text><text
       fill="#032c4b"
       font-family="'Avenir Next LT Pro Demi', 'Avenir Next LT Pro Demi_MSFontService', sans-serif"
       font-weight="600"
       font-size="220px"
       transform="translate(2013.46,1597)"
       id="text31">I</text><text
       fill="#032c4b"
       font-family="'Avenir Next LT Pro Demi', 'Avenir Next LT Pro Demi_MSFontService', sans-serif"
       font-weight="600"
       font-size="220px"
       transform="translate(2102.12,1597)"
       id="text32">P</text><text
       fill="#032c4b"
       font-family="'Avenir Next LT Pro Demi', 'Avenir Next LT Pro Demi_MSFontService', sans-serif"
       font-weight="600"
       font-size="220px"
       transform="translate(2272.12,1597)"
       id="text33">P</text><text
       fill="#032c4b"
       font-family="'Avenir Next LT Pro Demi', 'Avenir Next LT Pro Demi_MSFontService', sans-serif"
       font-weight="600"
       font-size="220px"
       transform="translate(2442.12,1597)"
       id="text34">E</text><text
       fill="#032c4b"
       font-family="'Avenir Next LT Pro Demi', 'Avenir Next LT Pro Demi_MSFontService', sans-serif"
       font-weight="600"
       font-size="220px"
       transform="translate(2612.12,1597)"
       id="text35">R</text></g></svg>
