<?xml version="1.0" encoding="UTF-8" standalone="no"?>
<!DOCTYPE svg PUBLIC "-//W3C//DTD SVG 1.1//EN"
 "http://www.w3.org/Graphics/SVG/1.1/DTD/svg11.dtd">
<!-- Generated by graphviz version 2.50.0 (0)
 -->
<!-- Title: G Pages: 1 -->
<svg width="424pt" height="740pt"
 viewBox="0.00 0.00 423.59 740.00" xmlns="http://www.w3.org/2000/svg" xmlns:xlink="http://www.w3.org/1999/xlink">
<g id="graph0" class="graph" transform="scale(1 1) rotate(0) translate(4 736)">
<title>G</title>
<polygon fill="white" stroke="transparent" points="-4,4 -4,-736 419.59,-736 419.59,4 -4,4"/>
<!-- ex:data1 -->
<g id="node1" class="node">
<title>ex:data1</title>
<ellipse fill="none" stroke="black" cx="93.59" cy="-714" rx="50.89" ry="18"/>
<text text-anchor="middle" x="93.59" y="-710.3" font-family="Times,serif" font-size="14.00">ex:data1</text>
</g>
<!-- ex:A -->
<g id="node2" class="node">
<title>ex:A</title>
<ellipse fill="none" stroke="black" cx="93.59" cy="-627" rx="30.59" ry="18"/>
<text text-anchor="middle" x="93.59" y="-623.3" font-family="Times,serif" font-size="14.00">ex:A</text>
</g>
<!-- ex:data1&#45;&gt;ex:A -->
<g id="edge1" class="edge">
<title>ex:data1&#45;&gt;ex:A</title>
<path fill="none" stroke="black" d="M93.59,-695.8C93.59,-684.16 93.59,-668.55 93.59,-655.24"/>
<polygon fill="black" stroke="black" points="97.09,-655.18 93.59,-645.18 90.09,-655.18 97.09,-655.18"/>
<text text-anchor="middle" x="121.09" y="-666.8" font-family="Times,serif" font-size="14.00">mapsTo</text>
</g>
<!-- ex:model1_input -->
<g id="node3" class="node">
<title>ex:model1_input</title>
<ellipse fill="none" stroke="black" cx="93.59" cy="-540" rx="87.18" ry="18"/>
<text text-anchor="middle" x="93.59" y="-536.3" font-family="Times,serif" font-size="14.00">ex:model1_input</text>
</g>
<!-- ex:A&#45;&gt;ex:model1_input -->
<g id="edge2" class="edge">
<title>ex:A&#45;&gt;ex:model1_input</title>
<path fill="none" stroke="black" d="M93.59,-608.8C93.59,-597.16 93.59,-581.55 93.59,-568.24"/>
<polygon fill="black" stroke="black" points="97.09,-568.18 93.59,-558.18 90.09,-568.18 97.09,-568.18"/>
<text text-anchor="middle" x="152.59" y="-579.8" font-family="Times,serif" font-size="14.00">inverse(mapsTo)</text>
</g>
<!-- ex:model1_output -->
<g id="node4" class="node">
<title>ex:model1_output</title>
<ellipse fill="none" stroke="black" cx="93.59" cy="-453" rx="93.68" ry="18"/>
<text text-anchor="middle" x="93.59" y="-449.3" font-family="Times,serif" font-size="14.00">ex:model1_output</text>
</g>
<!-- ex:model1_input&#45;&gt;ex:model1_output -->
<g id="edge3" class="edge">
<title>ex:model1_input&#45;&gt;ex:model1_output</title>
<path fill="none" stroke="black" d="M93.59,-521.8C93.59,-510.16 93.59,-494.55 93.59,-481.24"/>
<polygon fill="black" stroke="black" points="97.09,-481.18 93.59,-471.18 90.09,-481.18 97.09,-481.18"/>
<text text-anchor="middle" x="120.09" y="-492.8" font-family="Times,serif" font-size="14.00">model1</text>
</g>
<!-- ex:B -->
<g id="node5" class="node">
<title>ex:B</title>
<ellipse fill="none" stroke="black" cx="93.59" cy="-366" rx="31.4" ry="18"/>
<text text-anchor="middle" x="93.59" y="-362.3" font-family="Times,serif" font-size="14.00">ex:B</text>
</g>
<!-- ex:model1_output&#45;&gt;ex:B -->
<g id="edge4" class="edge">
<title>ex:model1_output&#45;&gt;ex:B</title>
<path fill="none" stroke="black" d="M93.59,-434.8C93.59,-423.16 93.59,-407.55 93.59,-394.24"/>
<polygon fill="black" stroke="black" points="97.09,-394.18 93.59,-384.18 90.09,-394.18 97.09,-394.18"/>
<text text-anchor="middle" x="121.09" y="-405.8" font-family="Times,serif" font-size="14.00">mapsTo</text>
</g>
<!-- ex:model2_input1 -->
<g id="node6" class="node">
<title>ex:model2_input1</title>
<ellipse fill="none" stroke="black" cx="93.59" cy="-279" rx="92.88" ry="18"/>
<text text-anchor="middle" x="93.59" y="-275.3" font-family="Times,serif" font-size="14.00">ex:model2_input1</text>
</g>
<!-- ex:B&#45;&gt;ex:model2_input1 -->
<g id="edge5" class="edge">
<title>ex:B&#45;&gt;ex:model2_input1</title>
<path fill="none" stroke="black" d="M93.59,-347.8C93.59,-336.16 93.59,-320.55 93.59,-307.24"/>
<polygon fill="black" stroke="black" points="97.09,-307.18 93.59,-297.18 90.09,-307.18 97.09,-307.18"/>
<text text-anchor="middle" x="152.59" y="-318.8" font-family="Times,serif" font-size="14.00">inverse(mapsTo)</text>
</g>
<!-- ex:model2_output -->
<g id="node7" class="node">
<title>ex:model2_output</title>
<ellipse fill="none" stroke="black" cx="195.59" cy="-192" rx="93.68" ry="18"/>
<text text-anchor="middle" x="195.59" y="-188.3" font-family="Times,serif" font-size="14.00">ex:model2_output</text>
</g>
<!-- ex:model2_input1&#45;&gt;ex:model2_output -->
<g id="edge6" class="edge">
<title>ex:model2_input1&#45;&gt;ex:model2_output</title>
<path fill="none" stroke="black" d="M113.74,-261.21C129.11,-248.4 150.46,-230.61 167.51,-216.4"/>
<polygon fill="black" stroke="black" points="170.04,-218.85 175.48,-209.76 165.56,-213.47 170.04,-218.85"/>
<text text-anchor="middle" x="178.09" y="-231.8" font-family="Times,serif" font-size="14.00">model2</text>
</g>
<!-- ex:D -->
<g id="node11" class="node">
<title>ex:D</title>
<ellipse fill="none" stroke="black" cx="195.59" cy="-105" rx="31.7" ry="18"/>
<text text-anchor="middle" x="195.59" y="-101.3" font-family="Times,serif" font-size="14.00">ex:D</text>
</g>
<!-- ex:model2_output&#45;&gt;ex:D -->
<g id="edge10" class="edge">
<title>ex:model2_output&#45;&gt;ex:D</title>
<path fill="none" stroke="black" d="M195.59,-173.8C195.59,-162.16 195.59,-146.55 195.59,-133.24"/>
<polygon fill="black" stroke="black" points="199.09,-133.18 195.59,-123.18 192.09,-133.18 199.09,-133.18"/>
<text text-anchor="middle" x="223.09" y="-144.8" font-family="Times,serif" font-size="14.00">mapsTo</text>
</g>
<!-- ex:data2 -->
<g id="node8" class="node">
<title>ex:data2</title>
<ellipse fill="none" stroke="black" cx="297.59" cy="-453" rx="50.89" ry="18"/>
<text text-anchor="middle" x="297.59" y="-449.3" font-family="Times,serif" font-size="14.00">ex:data2</text>
</g>
<!-- ex:C -->
<g id="node9" class="node">
<title>ex:C</title>
<ellipse fill="none" stroke="black" cx="297.59" cy="-366" rx="31.4" ry="18"/>
<text text-anchor="middle" x="297.59" y="-362.3" font-family="Times,serif" font-size="14.00">ex:C</text>
</g>
<!-- ex:data2&#45;&gt;ex:C -->
<g id="edge7" class="edge">
<title>ex:data2&#45;&gt;ex:C</title>
<path fill="none" stroke="black" d="M297.59,-434.8C297.59,-423.16 297.59,-407.55 297.59,-394.24"/>
<polygon fill="black" stroke="black" points="301.09,-394.18 297.59,-384.18 294.09,-394.18 301.09,-394.18"/>
<text text-anchor="middle" x="325.09" y="-405.8" font-family="Times,serif" font-size="14.00">mapsTo</text>
</g>
<!-- ex:model2_input2 -->
<g id="node10" class="node">
<title>ex:model2_input2</title>
<ellipse fill="none" stroke="black" cx="297.59" cy="-279" rx="92.88" ry="18"/>
<text text-anchor="middle" x="297.59" y="-275.3" font-family="Times,serif" font-size="14.00">ex:model2_input2</text>
</g>
<!-- ex:C&#45;&gt;ex:model2_input2 -->
<g id="edge8" class="edge">
<title>ex:C&#45;&gt;ex:model2_input2</title>
<path fill="none" stroke="black" d="M297.59,-347.8C297.59,-336.16 297.59,-320.55 297.59,-307.24"/>
<polygon fill="black" stroke="black" points="301.09,-307.18 297.59,-297.18 294.09,-307.18 301.09,-307.18"/>
<text text-anchor="middle" x="356.59" y="-318.8" font-family="Times,serif" font-size="14.00">inverse(mapsTo)</text>
</g>
<!-- ex:model2_input2&#45;&gt;ex:model2_output -->
<g id="edge9" class="edge">
<title>ex:model2_input2&#45;&gt;ex:model2_output</title>
<path fill="none" stroke="black" d="M277.44,-261.21C262.07,-248.4 240.72,-230.61 223.68,-216.4"/>
<polygon fill="black" stroke="black" points="225.62,-213.47 215.7,-209.76 221.14,-218.85 225.62,-213.47"/>
<text text-anchor="middle" x="280.09" y="-231.8" font-family="Times,serif" font-size="14.00">model2</text>
</g>
<!-- ex:target -->
<g id="node12" class="node">
<title>ex:target</title>
<ellipse fill="none" stroke="black" cx="195.59" cy="-18" rx="53.09" ry="18"/>
<text text-anchor="middle" x="195.59" y="-14.3" font-family="Times,serif" font-size="14.00">ex:target</text>
</g>
<!-- ex:D&#45;&gt;ex:target -->
<g id="edge11" class="edge">
<title>ex:D&#45;&gt;ex:target</title>
<path fill="none" stroke="black" d="M195.59,-86.8C195.59,-75.16 195.59,-59.55 195.59,-46.24"/>
<polygon fill="black" stroke="black" points="199.09,-46.18 195.59,-36.18 192.09,-46.18 199.09,-46.18"/>
<text text-anchor="middle" x="254.59" y="-57.8" font-family="Times,serif" font-size="14.00">inverse(mapsTo)</text>
</g>
</g>
</svg>
