<?xml version="1.0" encoding="UTF-8" standalone="no"?>
<svg
   width="1196"
   height="1194"
   xml:space="preserve"
   overflow="hidden"
   version="1.1"
   id="svg29"
   sodipodi:docname="tripper_circle.svg"
   inkscape:version="1.3 (0e150ed6c4, 2023-07-21)"
   xmlns:inkscape="http://www.inkscape.org/namespaces/inkscape"
   xmlns:sodipodi="http://sodipodi.sourceforge.net/DTD/sodipodi-0.dtd"
   xmlns="http://www.w3.org/2000/svg"
   xmlns:svg="http://www.w3.org/2000/svg"><defs
     id="defs29" /><sodipodi:namedview
     id="namedview29"
     pagecolor="#ffffff"
     bordercolor="#666666"
     borderopacity="1.0"
     inkscape:showpageshadow="2"
     inkscape:pageopacity="0.0"
     inkscape:pagecheckerboard="0"
     inkscape:deskcolor="#d1d1d1"
     inkscape:zoom="0.98994975"
     inkscape:cx="582.35279"
     inkscape:cy="597"
     inkscape:window-width="3440"
     inkscape:window-height="1386"
     inkscape:window-x="0"
     inkscape:window-y="0"
     inkscape:window-maximized="1"
     inkscape:current-layer="g29" /><g
     transform="translate(-1623 -217)"
     id="g29"><path
       d="M2222.5 219.5C2434.72 219.5 2630.81 332.811 2736.92 516.75 2843.03 700.689 2843.03 927.311 2736.92 1111.25L2222.5 814 2222.5 219.5Z"
       stroke="#0A8599"
       stroke-width="4.58333"
       stroke-miterlimit="8"
       fill="none"
       fill-rule="evenodd"
       id="path1" /><path
       d="M2734.85 1111.5C2628.65 1295.28 2432.39 1408.5 2220 1408.5 2007.61 1408.5 1811.35 1295.28 1705.15 1111.5L2220 814.5 2734.85 1111.5Z"
       stroke="#0A8599"
       stroke-width="4.58333"
       stroke-miterlimit="8"
       fill="none"
       fill-rule="evenodd"
       id="path2" /><path
       d="M1705.15 1111.5C1598.95 927.716 1598.95 701.284 1705.15 517.5 1811.35 333.716 2007.61 220.5 2220 220.5L2220 814.5 1705.15 1111.5Z"
       stroke="#0A8599"
       stroke-width="4.58333"
       stroke-miterlimit="8"
       fill="none"
       fill-rule="evenodd"
       id="path3" /><path
       d="M2407.5 438.5 2600.39 556.794"
       stroke="#01203D"
       stroke-width="20.625"
       stroke-linejoin="round"
       stroke-miterlimit="10"
       fill="none"
       fill-rule="evenodd"
       id="path4" /><path
       d="M2670.99 796.166 2610.5 564.5"
       stroke="#01203D"
       stroke-width="20.625"
       stroke-linejoin="round"
       stroke-miterlimit="10"
       fill="none"
       fill-rule="evenodd"
       id="path5" /><path
       d="M0 0 130.984 168.839"
       stroke="#01203D"
       stroke-width="20.625"
       stroke-linejoin="round"
       stroke-miterlimit="10"
       fill="none"
       fill-rule="evenodd"
       transform="matrix(-1 0 0 1 2605.48 566.5)"
       id="path6" /><path
       d="M0 0 110.909 115.875"
       stroke="#01203D"
       stroke-width="20.625"
       stroke-linejoin="round"
       stroke-miterlimit="10"
       fill="none"
       fill-rule="evenodd"
       transform="matrix(-1 0 0 1 2677.41 796.5)"
       id="path7" /><path
       d="M0 0 278.553 29.9274"
       stroke="#01203D"
       stroke-width="20.625"
       stroke-linejoin="round"
       stroke-miterlimit="10"
       fill="none"
       fill-rule="evenodd"
       transform="matrix(1 0 0 -1 2208.5 1182.43)"
       id="path8" /><path
       d="M2222.5 1180.5 2241.6 1324.08"
       stroke="#01203D"
       stroke-width="20.625"
       stroke-linejoin="round"
       stroke-miterlimit="10"
       fill="none"
       fill-rule="evenodd"
       id="path9" /><path
       d="M0 0 326.941 24.1083"
       stroke="#01203D"
       stroke-width="20.625"
       stroke-linejoin="round"
       stroke-miterlimit="10"
       fill="none"
       fill-rule="evenodd"
       transform="matrix(-1 0 0 1 2208.44 1180.5)"
       id="path10" /><path
       d="M2219.74 1180.85 2105.5 1019.5"
       stroke="#01203D"
       stroke-width="20.625"
       stroke-linejoin="round"
       stroke-miterlimit="10"
       fill="none"
       fill-rule="evenodd"
       id="path11" /><path
       d="M0 0 179.153 67.0332"
       stroke="#01203D"
       stroke-width="20.625"
       stroke-linejoin="round"
       stroke-miterlimit="10"
       fill="none"
       fill-rule="evenodd"
       transform="matrix(-1 0 0 1 1966.65 773.5)"
       id="path12" /><path
       d="M0 0 86.7564 275.94"
       stroke="#01203D"
       stroke-width="20.625"
       stroke-linejoin="round"
       stroke-miterlimit="10"
       fill="none"
       fill-rule="evenodd"
       transform="matrix(-1 0 0 1 1874.26 564.5)"
       id="path13" /><path
       d="M0 0 168.864 144.676"
       stroke="#01203D"
       stroke-width="20.625"
       stroke-linejoin="round"
       stroke-miterlimit="10"
       fill="none"
       fill-rule="evenodd"
       transform="matrix(-1 0 0 1 2047.36 421.5)"
       id="path14" /><path
       d="M2419 739C2419 705.31 2446.09 678 2479.5 678 2512.91 678 2540 705.31 2540 739 2540 772.689 2512.91 800 2479.5 800 2446.09 800 2419 772.689 2419 739Z"
       fill="#0C8498"
       fill-rule="evenodd"
       id="path15" /><path
       d="M2359 443C2359 409.311 2386.31 382 2420 382 2453.69 382 2481 409.311 2481 443 2481 476.689 2453.69 504 2420 504 2386.31 504 2359 476.689 2359 443Z"
       fill="#022C4C"
       fill-rule="evenodd"
       id="path16" /><path
       d="M2540 564C2540 530.311 2567.31 503 2601 503 2634.69 503 2662 530.311 2662 564 2662 597.689 2634.69 625 2601 625 2567.31 625 2540 597.689 2540 564Z"
       fill="#0C8498"
       fill-rule="evenodd"
       id="path17" /><path
       d="M2157.11 1215.28C2138.44 1187.33 2145.96 1149.53 2173.92 1130.85 2201.88 1112.18 2239.68 1119.7 2258.35 1147.66 2277.03 1175.61 2269.5 1213.42 2241.54 1232.09 2213.59 1250.76 2175.79 1243.24 2157.11 1215.28Z"
       fill="#0C8498"
       fill-rule="evenodd"
       id="path18" /><path
       d="M2616 796C2616 762.311 2643.31 735 2677 735 2710.69 735 2738 762.311 2738 796 2738 829.689 2710.69 857 2677 857 2643.31 857 2616 829.689 2616 796Z"
       fill="#0C8498"
       fill-rule="evenodd"
       id="path19" /><path
       d="M2425 1140C2425 1106.31 2452.31 1079 2486 1079 2519.69 1079 2547 1106.31 2547 1140 2547 1173.69 2519.69 1201 2486 1201 2452.31 1201 2425 1173.69 2425 1140Z"
       fill="#022C4C"
       fill-rule="evenodd"
       id="path20" /><path
       d="M2505 901C2505 867.311 2532.31 840 2566 840 2599.69 840 2627 867.311 2627 901 2627 934.69 2599.69 962 2566 962 2532.31 962 2505 934.69 2505 901Z"
       fill="#022C4C"
       fill-rule="evenodd"
       id="path21" /><path
       d="M2189.92 1350.04C2172.66 1321.19 2182.05 1283.81 2210.9 1266.55 2239.75 1249.29 2277.13 1258.68 2294.39 1287.53 2311.66 1316.38 2302.26 1353.76 2273.41 1371.02 2244.56 1388.28 2207.18 1378.89 2189.92 1350.04Z"
       fill="#022C4C"
       fill-rule="evenodd"
       id="path22" /><path
       d="M1849 1196C1849 1162.31 1876.31 1135 1910 1135 1943.69 1135 1971 1162.31 1971 1196 1971 1229.69 1943.69 1257 1910 1257 1876.31 1257 1849 1229.69 1849 1196Z"
       fill="#022C4C"
       fill-rule="evenodd"
       id="path23" /><path
       d="M2047 1018.5C2047 985.087 2074.31 958 2108 958 2141.69 958 2169 985.087 2169 1018.5 2169 1051.91 2141.69 1079 2108 1079 2074.31 1079 2047 1051.91 2047 1018.5Z"
       fill="#022C4C"
       fill-rule="evenodd"
       id="path24" /><path
       d="M1727 840C1727 806.311 1754.31 779 1788 779 1821.69 779 1849 806.311 1849 840 1849 873.689 1821.69 901 1788 901 1754.31 901 1727 873.689 1727 840Z"
       fill="#0C8498"
       fill-rule="evenodd"
       id="path25" /><path
       d="M1984 417.5C1984 384.087 2011.09 357 2044.5 357 2077.91 357 2105 384.087 2105 417.5 2105 450.913 2077.91 478 2044.5 478 2011.09 478 1984 450.913 1984 417.5Z"
       fill="#0A8599"
       fill-rule="evenodd"
       id="path26" /><path
       d="M1812.7 576.828C1814.74 543.27 1843.6 517.721 1877.16 519.762 1910.72 521.803 1936.27 550.662 1934.23 584.219 1932.19 617.777 1903.33 643.326 1869.77 641.285 1836.21 639.244 1810.66 610.386 1812.7 576.828Z"
       fill="#0C8498"
       fill-rule="evenodd"
       id="path27" /><path
       d="M1881 779C1881 745.311 1908.31 718 1942 718 1975.69 718 2003 745.311 2003 779 2003 812.69 1975.69 840 1942 840 1908.31 840 1881 812.69 1881 779Z"
       fill="#022C4C"
       fill-rule="evenodd"
       id="path28" /><path
       d="m 2045,625 h 354 v 63.44 H 2253.66 V 1019 h -63.32 V 688.44 H 2045 Z"
       fill="#032c4b"
       fill-rule="evenodd"
       id="path29" /></g></svg>
